<svg xmlns="http://www.w3.org/2000/svg" xmlns:xlink="http://www.w3.org/1999/xlink" width="76" zoomAndPan="magnify" viewBox="0 0 56.879997 55.5" height="74" preserveAspectRatio="xMidYMid meet" version="1.0"><defs><g/><clipPath id="f2e4c0272d"><path d="M 0.195312 0 L 56.375 0 L 56.375 54.476562 L 0.195312 54.476562 Z M 0.195312 0 " clip-rule="nonzero"/></clipPath><clipPath id="daf5a8e9af"><path d="M 56.335938 7.433594 L 56.335938 47.042969 C 56.335938 51.148438 53.007812 54.476562 48.90625 54.476562 L 7.628906 54.476562 C 3.523438 54.476562 0.195312 51.148438 0.195312 47.042969 L 0.195312 7.433594 C 0.195312 3.328125 3.523438 0 7.628906 0 L 48.90625 0 C 53.007812 0 56.335938 3.328125 56.335938 7.433594 Z M 56.335938 7.433594 " clip-rule="nonzero"/></clipPath><clipPath id="decf344e06"><path d="M 0.195312 0 L 56.375 0 L 56.375 54.476562 L 0.195312 54.476562 Z M 0.195312 0 " clip-rule="nonzero"/></clipPath><clipPath id="293a871fa4"><path d="M 56.335938 7.433594 L 56.335938 47.042969 C 56.335938 51.148438 53.007812 54.476562 48.90625 54.476562 L 7.628906 54.476562 C 3.523438 54.476562 0.195312 51.148438 0.195312 47.042969 L 0.195312 7.433594 C 0.195312 3.328125 3.523438 0 7.628906 0 L 48.90625 0 C 53.007812 0 56.335938 3.328125 56.335938 7.433594 Z M 56.335938 7.433594 " clip-rule="nonzero"/></clipPath><clipPath id="cacb0a0517"><rect x="0" width="57" y="0" height="55"/></clipPath><clipPath id="db96b1239b"><path d="M 13.375 13 L 43.109375 13 L 43.109375 41.625 L 13.375 41.625 Z M 13.375 13 " clip-rule="nonzero"/></clipPath></defs><g clip-path="url(#f2e4c0272d)"><g clip-path="url(#daf5a8e9af)"><g transform="matrix(1, 0, 0, 1, 0.000000000000000028, -0.000000000000005846)"><g clip-path="url(#cacb0a0517)"><g clip-path="url(#decf344e06)"><g clip-path="url(#293a871fa4)"><path fill="#d85c76" d="M 0.195312 0 L 56.375 0 L 56.375 54.476562 L 0.195312 54.476562 Z M 0.195312 0 " fill-opacity="1" fill-rule="nonzero"/></g></g></g></g></g></g><g fill="#2d3668" fill-opacity="1"><g transform="translate(23.39947, 28.988839)"><g/></g></g><g fill="#2d3668" fill-opacity="1"><g transform="translate(24.788537, 28.988839)"><g/></g></g><g fill="#2d3668" fill-opacity="1"><g transform="translate(26.177603, 28.988839)"><g/></g></g><g fill="#2d3668" fill-opacity="1"><g transform="translate(27.56667, 28.988839)"><g/></g></g><g fill="#2d3668" fill-opacity="1"><g transform="translate(28.955737, 28.988839)"><g/></g></g><g fill="#2d3668" fill-opacity="1"><g transform="translate(30.344803, 28.988839)"><g/></g></g><g fill="#2d3668" fill-opacity="1"><g transform="translate(31.73387, 28.988839)"><g/></g></g><g clip-path="url(#db96b1239b)"><path fill="#fffcf3" d="M 27.410156 13.503906 L 14.054688 26.855469 C 13.535156 27.378906 13.535156 28.222656 14.054688 28.746094 C 14.578125 29.265625 15.421875 29.265625 15.941406 28.746094 L 27.015625 17.671875 L 27.007812 51.835938 C 27.007812 52.574219 27.605469 53.171875 28.34375 53.171875 C 29.082031 53.171875 29.679688 52.578125 29.679688 51.835938 L 29.6875 17.671875 L 40.761719 28.746094 C 41.285156 29.265625 42.128906 29.265625 42.652344 28.746094 C 42.910156 28.484375 43.042969 28.144531 43.042969 27.800781 C 43.042969 27.460938 42.910156 27.121094 42.652344 26.859375 L 29.296875 13.503906 C 28.773438 12.980469 27.929688 12.980469 27.410156 13.503906 Z M 27.410156 13.503906 " fill-opacity="1" fill-rule="nonzero"/></g></svg>